<svg width="98" height="46" viewBox="0 0 98 46" fill="none" xmlns="http://www.w3.org/2000/svg">
<path d="M1.52588e-05 -0.00489235V11.5453L5.09133 13.6976L1.52588e-05 13.7021V45.3538H13.7937V15.8544L8.70235 13.6976L13.7937 13.6887V2.14741L8.70235 -0.00489235H1.52588e-05Z" fill="#0363EF"/>
<path d="M52.2185 33.0772V-0.00489235H28.4441V33.0772H39.6585V20.6982H41.0042V33.0772H52.2185ZM39.6585 14.8072V5.12408H41.0042V14.8206L39.6585 14.8072Z" fill="black"/>
<path d="M15.2247 -0.00489235V45.0641H52.2186V34.423H27.0895V-0.00489235H15.2247Z" fill="black"/>
<path d="M87.3106 -0.00489235L87.1536 14.9097H85.8079L85.9559 -0.00489235H75.1677V19.8738H80.6358C80.7249 19.8732 80.8133 19.8902 80.8957 19.9238C80.9782 19.9574 81.0531 20.0069 81.1161 20.0695C81.1791 20.1321 81.229 20.2066 81.2628 20.2885C81.2966 20.3704 81.3138 20.4581 81.3132 20.5467V45.0552H91.8816L98.0001 -0.00489235H87.3106Z" fill="black"/>
<path d="M53.5732 -0.00489235V45.0641H79.9584V21.2195H74.4902C74.3106 21.2195 74.1383 21.1486 74.0113 21.0225C73.8842 20.8963 73.8129 20.7251 73.8129 20.5467V-0.00489235H53.5732ZM64.5633 40.4699H63.2176V27.4135H64.5633V40.4699ZM64.5633 14.8206H63.2176V5.12408H64.5633V14.8206Z" fill="black"/>
</svg>
