<svg xmlns="http://www.w3.org/2000/svg" viewBox="0 0 104.67 40.14"><defs><style>.cls-1{fill:#0363ef;}.cls-2{fill:#040000;}</style></defs><g id="图层_2" data-name="图层 2"><g id="图层_1-2" data-name="图层 1"><rect class="cls-1" width="6.69" height="6.69"/><polygon class="cls-1" points="0 10.04 0 13.38 0 40.14 6.69 40.14 6.69 13.38 6.69 10.04 0 10.04"/><rect x="14.99" width="6.69" height="40.14"/><polygon points="46.63 40.14 53.32 40.14 46.63 0 39.94 0 46.63 40.14"/><polygon points="33.25 0 39.94 0 33.25 40.14 26.56 40.14 33.25 0"/><polygon points="97.98 0 104.67 0 97.98 40.14 91.29 40.14 97.98 0"/><rect x="57.85" width="6.69" height="40.14"/><polygon points="84.6 0 87.94 20.07 94.64 20.07 91.29 0 84.6 0"/><polygon points="77.71 0 74.37 20.07 67.68 20.07 71.02 0 77.71 0"/><polygon points="81.07 20.07 77.72 40.14 71.03 40.14 74.38 20.07 81.07 20.07"/><rect class="cls-2" x="58.11" width="15.63" height="1"/></g></g></svg>