<svg width="140" height="140" viewBox="0 0 140 140" fill="none" xmlns="http://www.w3.org/2000/svg">
<rect x="0.5" y="0.5" width="139" height="139" rx="7.5" fill="white" stroke="#707070"/>
<path fill-rule="evenodd" clip-rule="evenodd" d="M37.6641 88.7954H44.7718L45.487 93.0272L70.8185 88.7954H113.286V103.89H37.6641V88.7954ZM82.7839 79.542H43.6095L45.785 92.5504L83.8866 86.1728L82.7839 79.542Z" fill="#1E3135"/>
<path fill-rule="evenodd" clip-rule="evenodd" d="M79.8187 63.9706H102.185V79.08H41.0317V68.7239L79.8187 63.9706Z" fill="#F08300"/>
<path fill-rule="evenodd" clip-rule="evenodd" d="M41.7469 37H117.399V52.1095H63.9194C56.3647 51.3793 56.2008 49.6955 55.7239 39.6226C55.2471 49.6955 55.0981 51.3793 47.5285 52.1095H41.7469V37ZM24 55.1344L44.5036 52.6161H45.8894H46.2768H46.3513H46.6642H46.7685H47.0665H47.2007H47.4689H47.5732H47.8712H48.1692H48.2735L49.4656 52.78H49.6742H49.7934H49.9722H50.0914H50.2702H50.3745H50.5682H50.8216H51.0153H51.0898H51.2686H51.358H51.5219C51.7854 52.8653 52.044 52.9648 52.2967 53.078H52.4309H52.565H52.6991L52.8332 53.1674L52.9524 53.2568L53.0567 53.3463L53.161 53.4357C53.3832 53.648 53.583 53.8827 53.757 54.136C53.7497 54.1754 53.7497 54.2158 53.757 54.2552L53.8315 54.3893L53.906 54.5234C53.9036 54.5731 53.9036 54.6228 53.906 54.6724C53.9036 54.7221 53.9036 54.7718 53.906 54.8214C53.9001 54.8709 53.9001 54.921 53.906 54.9704C53.906 54.9704 53.906 55.0748 53.906 55.1344C53.9954 55.4175 54.07 55.7304 54.1445 56.0582V56.2668V56.4903V56.684V56.8182V56.997V57.1162V57.3397V57.4142V57.6675V57.7867V58.0102V58.3231V58.6808V59.0533V61.8397V62.3464V62.4358V62.8828V63.4192V62.9275V61.8397V61.5119V61.6162V61.3182V60.8414V60.4689V60.1112C54.1518 60.0071 54.1518 59.9025 54.1445 59.7983V59.5748V59.4556V59.2321V59.1129V58.9043V58.8V58.5914V58.4722V58.2933V58.1592V57.9655V57.8612V57.6824V57.593V57.4142C54.2071 57.1153 54.2917 56.8214 54.3978 56.535C54.387 56.3785 54.4072 56.2214 54.4571 56.0726C54.5071 55.9239 54.5859 55.7864 54.689 55.6681C54.7921 55.5498 54.9174 55.453 55.0579 55.3831C55.1985 55.3133 55.3513 55.2718 55.5079 55.261C55.6644 55.2503 55.8216 55.2704 55.9703 55.3204C56.1191 55.3704 56.2565 55.4491 56.3748 55.5522C56.4931 55.6553 56.59 55.7807 56.6598 55.9212C56.7297 56.0617 56.7711 56.2146 56.7819 56.3711V56.2817V56.1476V56.0731V55.939V55.8645C56.7792 55.8248 56.7792 55.785 56.7819 55.7453V55.6261C56.7791 55.5864 56.7791 55.5466 56.7819 55.5069L56.8713 55.3728C57.0152 55.1675 57.18 54.9778 57.363 54.8065L57.4823 54.7022L57.5866 54.6128L57.6909 54.5383H57.8101H57.9293H58.0038H58.123H58.2571L59.0319 54.2403H59.1064H59.2704H59.3449H59.5237H59.6131H59.7919H59.8813H60.075H60.1644H60.3432H60.4773H60.6561H60.7753H60.984L62.1909 54.0764H62.2654H62.5783H62.8764H62.9807H63.2638H63.383H63.681H63.8002H64.0982H64.1876H64.5602H89.9214L91.1284 63.5832L25.8924 70.1097L24 55.1344Z" fill="#1E3135"/>
</svg>
